# xmcd CD database file
#
# Track frame offsets:
#	150
#	15542
#	30055
#	47247
#	65457
#	82647
#	99402
#	114825
#	129347
#	146577
#	164797
#	181982
#
# Disc length: 2646 seconds
#
# Revision: 1
# Processed by: cddbd v1.5PL3 Copyright (c) Steve Scherf et al.
# Submitted via: CDex 1.50beta10
#
DISCID=8b0a540c
DTITLE=Various Artist - ONE 〜輝く季節へ Music from The Animation
DYEAR=2001
DGENRE=Anime
TTITLE0=Eternity 〜この始まりに終わりはない
TTITLE1=Rose
TTITLE2=このままがいいよ
TTITLE3=風が見える日
TTITLE4=星のまなざし
TTITLE5=impurity
TTITLE6=Eternity 〜この始まりに終わりはない (カラオケ)
TTITLE7=Rose (カラオケ)
TTITLE8=このままがいいよ (カラオケ)
TTITLE9=風が見える日 (カラオケ)
TTITLE10=星のまなざし (カラオケ)
TTITLE11=impurity (カラオケ)
EXTD=YEAR: 20010810
EXTT0=
EXTT1=
EXTT2=
EXTT3=
EXTT4=
EXTT5=
EXTT6=
EXTT7=
EXTT8=
EXTT9=
EXTT10=
EXTT11=
PLAYORDER=
